<?xml version="1.0"?>
<svg xmlns="http://www.w3.org/2000/svg" id="Layer_5" enable-background="new 0 0 64 64" height="512" viewBox="0 0 64 64" width="512" class=""><g><path d="m3.136 53.5h12.728v2h-12.728z" transform="matrix(.707 -.707 .707 .707 -35.755 22.68)" data-original="#000000" class="active-path" style="fill:#F47500" data-old_color="#000000"/><path d="m1.586 60h2.828v2h-2.828z" transform="matrix(.707 -.707 .707 .707 -42.255 19.988)" data-original="#000000" class="active-path" style="fill:#F47500" data-old_color="#000000"/><path d="m9.757 55h8.485v2h-8.485z" transform="matrix(.707 -.707 .707 .707 -35.498 26.302)" data-original="#000000" class="active-path" style="fill:#F47500" data-old_color="#000000"/><path d="m7.586 60h2.828v2h-2.828z" transform="matrix(.707 -.707 .707 .707 -40.498 24.23)" data-original="#000000" class="active-path" style="fill:#F47500" data-old_color="#000000"/><path d="m3.757 49h8.485v2h-8.485z" transform="matrix(.707 -.707 .707 .707 -33.012 20.302)" data-original="#000000" class="active-path" style="fill:#F47500" data-old_color="#000000"/><path d="m1.586 54h2.828v2h-2.828z" transform="matrix(.707 -.707 .707 .707 -38.012 18.23)" data-original="#000000" class="active-path" style="fill:#F47500" data-old_color="#000000"/><path d="m31 26c-3.86 0-7 3.141-7 7s3.14 7 7 7 7-3.141 7-7-3.14-7-7-7zm0 12c-2.757 0-5-2.243-5-5s2.243-5 5-5 5 2.243 5 5-2.243 5-5 5z" data-original="#000000" class="active-path" style="fill:#F47500" data-old_color="#000000"/><path d="m31 30c-1.654 0-3 1.346-3 3s1.346 3 3 3 3-1.346 3-3-1.346-3-3-3zm0 4c-.551 0-1-.448-1-1s.449-1 1-1 1 .448 1 1-.449 1-1 1z" data-original="#000000" class="active-path" style="fill:#F47500" data-old_color="#000000"/><path d="m43.142 56.001 19.858-.012-.001-2-2 .001v-5.99h-2v5.992l-2 .001v-3.993h-2v3.994l-2 .001v-7.995h-2v7.996l-2 .001v-5.997h-2v5.999l-2.141.001-1.701-11.059c11.04-.605 19.843-9.752 19.843-20.941 0-11.579-9.42-21-21-21-9.45 0-17.457 6.276-20.084 14.877l-1.058-6.878-3.858.002v-6.001h-2v6.003l-2 .001v-4.004h-2v4.005l-2 .001v-8.006h-2v8.007l-2 .001v-6.008h-2v6.01l-2 .001.001 2 18.141-.011 1.87 12.152.029-.004c.075 1.304.282 2.617.609 3.923-1.302 1.542-2.418 3.229-3.324 5.042l-.444.887h-1.82c-5.331 0-10.286 2.875-12.93 7.504l-.132.23v2.653l5.177-1.726c1.319-.438 2.691-.661 4.077-.661h1.627l-2.099 4.197 7.02 7.02 4.198-2.099v1.627c0 1.389-.223 2.761-.662 4.077l-1.725 5.178h2.653l.23-.132c4.629-2.644 7.504-7.599 7.504-12.93v-1.819l.887-.443c1.813-.906 3.501-2.022 5.043-3.324 1.404.351 2.812.558 4.208.619zm-1.142-53.001c10.477 0 19 8.523 19 19s-8.523 19-19 19c-1.084 0-2.184-.111-3.286-.309 1.128-1.152 2.138-2.39 3.016-3.703.09.004.179.012.27.012 8.271 0 15-6.729 15-15s-6.729-15-15-15-15 6.729-15 15c0 .091.008.181.012.271-1.313.878-2.551 1.888-3.703 3.016-.198-1.101-.309-2.201-.309-3.287 0-10.477 8.523-19 19-19zm-.839 15c-1.771 0-3.514.183-5.209.533 1.222-2.137 3.496-3.533 6.048-3.533 3.86 0 7 3.141 7 7 0 2.551-1.396 4.824-3.533 6.048.35-1.696.533-3.438.533-5.209 0-2.668-2.171-4.839-4.839-4.839zm0 2c1.566 0 2.839 1.273 2.839 2.839 0 1.063-.076 2.114-.214 3.15-3.138-.111-5.664-2.638-5.776-5.775 1.037-.138 2.088-.214 3.151-.214zm3.66 10.532c3.665-1.208 6.179-4.633 6.179-8.532 0-4.963-4.038-9-9-9-3.9 0-7.325 2.514-8.533 6.179-1.529.481-3.008 1.104-4.419 1.866.492-6.722 6.106-12.045 12.952-12.045 7.168 0 13 5.832 13 13 0 6.846-5.322 12.459-12.045 12.952.762-1.411 1.385-2.891 1.866-4.42zm-32.567 8.468c-1.602 0-3.187.257-4.709.765l-1.995.665c2.4-3.377 6.322-5.43 10.512-5.43h.82l-2 4zm1.963 5.803 2.724-5.448 7.705 7.704-5.448 2.724zm14.783 3.135c0 4.19-2.052 8.112-5.429 10.513l.665-1.995c.507-1.521.764-3.106.764-4.711v-2.627l4-2zm1.992-4.052-4.461 2.231-8.648-8.647 2.231-4.462c1.133-2.266 2.616-4.323 4.408-6.115 3.208-3.208 7.182-5.369 11.507-6.327.279 3.96 3.446 7.127 7.406 7.406-.958 4.326-3.119 8.299-6.327 11.507-1.792 1.792-3.85 3.274-6.116 4.407z" data-original="#000000" class="active-path" style="fill:#F47500" data-old_color="#000000"/></g> </svg>
